<svg width="22" height="28" viewBox="0 0 22 28" fill="none" xmlns="http://www.w3.org/2000/svg">
<path d="M10.6667 21.3333C11.3739 21.3333 12.0522 21.0524 12.5523 20.5523C13.0524 20.0522 13.3333 19.3739 13.3333 18.6667C13.3333 17.9594 13.0524 17.2811 12.5523 16.781C12.0522 16.281 11.3739 16 10.6667 16C9.95942 16 9.28115 16.281 8.78105 16.781C8.28095 17.2811 8 17.9594 8 18.6667C8 19.3739 8.28095 20.0522 8.78105 20.5523C9.28115 21.0524 9.95942 21.3333 10.6667 21.3333ZM18.6667 9.33333C19.3739 9.33333 20.0522 9.61429 20.5523 10.1144C21.0524 10.6145 21.3333 11.2928 21.3333 12V25.3333C21.3333 26.0406 21.0524 26.7189 20.5523 27.219C20.0522 27.719 19.3739 28 18.6667 28H2.66667C1.95942 28 1.28115 27.719 0.781048 27.219C0.280951 26.7189 0 26.0406 0 25.3333V12C0 11.2928 0.280951 10.6145 0.781048 10.1144C1.28115 9.61429 1.95942 9.33333 2.66667 9.33333H4V6.66667C4 4.89856 4.70238 3.20286 5.95262 1.95262C7.20286 0.702379 8.89856 0 10.6667 0C11.5421 0 12.4091 0.172438 13.2179 0.50747C14.0267 0.842501 14.7617 1.33356 15.3807 1.95262C15.9998 2.57168 16.4908 3.30661 16.8259 4.11544C17.1609 4.92428 17.3333 5.79119 17.3333 6.66667V9.33333H18.6667ZM10.6667 2.66667C9.6058 2.66667 8.58838 3.08809 7.83824 3.83824C7.08809 4.58839 6.66667 5.6058 6.66667 6.66667V9.33333H14.6667V6.66667C14.6667 5.6058 14.2452 4.58839 13.4951 3.83824C12.7449 3.08809 11.7275 2.66667 10.6667 2.66667Z" fill="#17BE79"/>
<path d="M13.6667 18.6667C13.6667 20.3235 12.3235 21.6667 10.6667 21.6667C9.00981 21.6667 7.66667 20.3235 7.66667 18.6667C7.66667 17.0098 9.00981 15.6667 10.6667 15.6667C12.3235 15.6667 13.6667 17.0098 13.6667 18.6667Z" fill="#17BE79"/>
</svg>
