<svg width="21" height="22" viewBox="0 0 21 22" fill="none" xmlns="http://www.w3.org/2000/svg">
<path d="M19.5606 10.2043L10.7653 18.9997C9.68776 20.0771 8.22637 20.6825 6.70256 20.6825C5.17875 20.6825 3.71735 20.0771 2.63986 18.9997C1.56236 17.9222 0.957031 16.4608 0.957031 14.937C0.957031 13.4131 1.56236 11.9517 2.63986 10.8743L11.4352 2.07891C12.1535 1.36058 13.1278 0.957031 14.1437 0.957031C15.1595 0.957031 16.1338 1.36058 16.8521 2.07891C17.5705 2.79724 17.974 3.77151 17.974 4.78738C17.974 5.80325 17.5705 6.77752 16.8521 7.49585L8.04722 16.2912C7.68806 16.6504 7.20092 16.8521 6.69299 16.8521C6.18505 16.8521 5.69792 16.6504 5.33875 16.2912C4.97959 15.932 4.77781 15.4449 4.77781 14.937C4.77781 14.429 4.97959 13.9419 5.33875 13.5827L13.4642 5.46689" stroke="#272B37" stroke-width="1.91411" stroke-linecap="round" stroke-linejoin="round"/>
</svg>
