<svg width="27" height="21" viewBox="0 0 27 21" fill="none" xmlns="http://www.w3.org/2000/svg">
<path d="M24.699 0.18541C24.699 0.18541 27.1965 -0.723587 26.9876 1.4838C26.9188 2.3928 26.2946 5.57459 25.8086 9.01557L24.1436 19.2095C24.1436 19.2095 24.0048 20.7029 22.7557 20.9627C21.5073 21.2219 19.6341 20.0537 19.2869 19.7939C19.0092 19.5989 14.0837 16.6769 12.3493 15.2489C11.8633 14.8589 11.3079 14.0802 12.4187 13.1712L19.7028 6.67798C20.5353 5.89919 21.3678 4.08119 17.899 6.28858L8.18557 12.4566C8.18557 12.4566 7.07537 13.1064 4.99447 12.522L0.484254 11.223C0.484254 11.223 -1.18072 10.2492 1.66388 9.27537C8.60214 6.22378 17.1359 3.1074 24.6978 0.18541H24.699Z" fill="#17BE79"/>
</svg>
